<mxfile host="app.diagrams.net" agent="Mozilla/5.0 (Windows NT 10.0; Win64; x64) AppleWebKit/537.36 (KHTML, like Gecko) Chrome/128.0.0.0 Safari/537.36" version="24.7.12">
  <diagram id="C5RBs43oDa-KdzZeNtuy" name="Page-1">
    <mxGraphModel dx="1562" dy="845" grid="1" gridSize="10" guides="1" tooltips="1" connect="1" arrows="1" fold="1" page="1" pageScale="1" pageWidth="827" pageHeight="1169" math="0" shadow="0">
      <root>
        <mxCell id="WIyWlLk6GJQsqaUBKTNV-0" />
        <mxCell id="WIyWlLk6GJQsqaUBKTNV-1" parent="WIyWlLk6GJQsqaUBKTNV-0" />
        <mxCell id="rPol7dPWqW4X3yRjaVga-19" style="edgeStyle=orthogonalEdgeStyle;rounded=0;orthogonalLoop=1;jettySize=auto;html=1;exitX=0.5;exitY=1;exitDx=0;exitDy=0;entryX=0.5;entryY=0;entryDx=0;entryDy=0;" edge="1" parent="WIyWlLk6GJQsqaUBKTNV-1" target="rPol7dPWqW4X3yRjaVga-2">
          <mxGeometry relative="1" as="geometry">
            <mxPoint x="400.5" y="90" as="sourcePoint" />
          </mxGeometry>
        </mxCell>
        <mxCell id="rPol7dPWqW4X3yRjaVga-14" style="edgeStyle=orthogonalEdgeStyle;rounded=0;orthogonalLoop=1;jettySize=auto;html=1;exitX=0.5;exitY=1;exitDx=0;exitDy=0;entryX=0.5;entryY=0;entryDx=0;entryDy=0;" edge="1" parent="WIyWlLk6GJQsqaUBKTNV-1" source="rPol7dPWqW4X3yRjaVga-2" target="rPol7dPWqW4X3yRjaVga-4">
          <mxGeometry relative="1" as="geometry" />
        </mxCell>
        <mxCell id="rPol7dPWqW4X3yRjaVga-2" value="&lt;font style=&quot;font-size: 20px;&quot;&gt;Purchase smartphone?&lt;/font&gt;" style="rhombus;whiteSpace=wrap;html=1;fontSize=20;" vertex="1" parent="WIyWlLk6GJQsqaUBKTNV-1">
          <mxGeometry x="305.5" y="120" width="190" height="100" as="geometry" />
        </mxCell>
        <mxCell id="rPol7dPWqW4X3yRjaVga-12" style="edgeStyle=orthogonalEdgeStyle;rounded=0;orthogonalLoop=1;jettySize=auto;html=1;exitX=0.5;exitY=1;exitDx=0;exitDy=0;entryX=1;entryY=0.5;entryDx=0;entryDy=0;" edge="1" parent="WIyWlLk6GJQsqaUBKTNV-1" source="rPol7dPWqW4X3yRjaVga-3" target="rPol7dPWqW4X3yRjaVga-7">
          <mxGeometry relative="1" as="geometry" />
        </mxCell>
        <mxCell id="rPol7dPWqW4X3yRjaVga-3" value="&lt;font style=&quot;font-size: 22px;&quot;&gt;Purchase used&lt;/font&gt;" style="rounded=0;whiteSpace=wrap;html=1;" vertex="1" parent="WIyWlLk6GJQsqaUBKTNV-1">
          <mxGeometry x="520" y="470" width="130" height="60" as="geometry" />
        </mxCell>
        <mxCell id="rPol7dPWqW4X3yRjaVga-15" style="edgeStyle=orthogonalEdgeStyle;rounded=0;orthogonalLoop=1;jettySize=auto;html=1;exitX=0.5;exitY=1;exitDx=0;exitDy=0;entryX=0.5;entryY=0;entryDx=0;entryDy=0;" edge="1" parent="WIyWlLk6GJQsqaUBKTNV-1" source="rPol7dPWqW4X3yRjaVga-4" target="rPol7dPWqW4X3yRjaVga-5">
          <mxGeometry relative="1" as="geometry" />
        </mxCell>
        <mxCell id="rPol7dPWqW4X3yRjaVga-4" value="Purchased smartphone" style="rounded=0;whiteSpace=wrap;html=1;fontSize=22;" vertex="1" parent="WIyWlLk6GJQsqaUBKTNV-1">
          <mxGeometry x="340.5" y="240" width="120" height="60" as="geometry" />
        </mxCell>
        <mxCell id="rPol7dPWqW4X3yRjaVga-8" style="edgeStyle=orthogonalEdgeStyle;rounded=0;orthogonalLoop=1;jettySize=auto;html=1;exitX=0.5;exitY=1;exitDx=0;exitDy=0;entryX=0.5;entryY=0;entryDx=0;entryDy=0;" edge="1" parent="WIyWlLk6GJQsqaUBKTNV-1" source="rPol7dPWqW4X3yRjaVga-5" target="rPol7dPWqW4X3yRjaVga-6">
          <mxGeometry relative="1" as="geometry" />
        </mxCell>
        <mxCell id="rPol7dPWqW4X3yRjaVga-9" style="edgeStyle=orthogonalEdgeStyle;rounded=0;orthogonalLoop=1;jettySize=auto;html=1;exitX=1;exitY=0.5;exitDx=0;exitDy=0;" edge="1" parent="WIyWlLk6GJQsqaUBKTNV-1" source="rPol7dPWqW4X3yRjaVga-5" target="rPol7dPWqW4X3yRjaVga-3">
          <mxGeometry relative="1" as="geometry" />
        </mxCell>
        <mxCell id="rPol7dPWqW4X3yRjaVga-5" value="&lt;div style=&quot;font-size: 20px;&quot;&gt;&lt;span style=&quot;font-size: 20px; background-color: initial;&quot;&gt;Purchase used smartphone?&lt;/span&gt;&lt;br style=&quot;font-size: 20px;&quot;&gt;&lt;/div&gt;" style="rhombus;whiteSpace=wrap;html=1;fontSize=20;" vertex="1" parent="WIyWlLk6GJQsqaUBKTNV-1">
          <mxGeometry x="310.5" y="320" width="180" height="120" as="geometry" />
        </mxCell>
        <mxCell id="rPol7dPWqW4X3yRjaVga-11" style="edgeStyle=orthogonalEdgeStyle;rounded=0;orthogonalLoop=1;jettySize=auto;html=1;exitX=0.5;exitY=1;exitDx=0;exitDy=0;entryX=0.5;entryY=0;entryDx=0;entryDy=0;" edge="1" parent="WIyWlLk6GJQsqaUBKTNV-1" source="rPol7dPWqW4X3yRjaVga-6" target="rPol7dPWqW4X3yRjaVga-7">
          <mxGeometry relative="1" as="geometry" />
        </mxCell>
        <mxCell id="rPol7dPWqW4X3yRjaVga-6" value="&lt;font style=&quot;font-size: 22px;&quot;&gt;Purchase new&lt;/font&gt;" style="rounded=0;whiteSpace=wrap;html=1;" vertex="1" parent="WIyWlLk6GJQsqaUBKTNV-1">
          <mxGeometry x="338.5" y="470" width="124" height="60" as="geometry" />
        </mxCell>
        <mxCell id="rPol7dPWqW4X3yRjaVga-21" style="edgeStyle=orthogonalEdgeStyle;rounded=0;orthogonalLoop=1;jettySize=auto;html=1;exitX=0.5;exitY=1;exitDx=0;exitDy=0;" edge="1" parent="WIyWlLk6GJQsqaUBKTNV-1" source="rPol7dPWqW4X3yRjaVga-7" target="rPol7dPWqW4X3yRjaVga-17">
          <mxGeometry relative="1" as="geometry" />
        </mxCell>
        <mxCell id="rPol7dPWqW4X3yRjaVga-7" value="&lt;font style=&quot;font-size: 22px;&quot;&gt;using and waste at EoL&lt;/font&gt;" style="rounded=0;whiteSpace=wrap;html=1;" vertex="1" parent="WIyWlLk6GJQsqaUBKTNV-1">
          <mxGeometry x="323.5" y="570" width="154" height="60" as="geometry" />
        </mxCell>
        <mxCell id="rPol7dPWqW4X3yRjaVga-18" style="edgeStyle=orthogonalEdgeStyle;rounded=0;orthogonalLoop=1;jettySize=auto;html=1;exitX=1;exitY=0.5;exitDx=0;exitDy=0;entryX=1;entryY=0.5;entryDx=0;entryDy=0;" edge="1" parent="WIyWlLk6GJQsqaUBKTNV-1" source="rPol7dPWqW4X3yRjaVga-17" target="rPol7dPWqW4X3yRjaVga-2">
          <mxGeometry relative="1" as="geometry">
            <Array as="points">
              <mxPoint x="680" y="710" />
              <mxPoint x="680" y="170" />
            </Array>
          </mxGeometry>
        </mxCell>
        <mxCell id="rPol7dPWqW4X3yRjaVga-23" style="edgeStyle=orthogonalEdgeStyle;rounded=0;orthogonalLoop=1;jettySize=auto;html=1;exitX=0.5;exitY=1;exitDx=0;exitDy=0;entryX=0.5;entryY=0;entryDx=0;entryDy=0;" edge="1" parent="WIyWlLk6GJQsqaUBKTNV-1" source="rPol7dPWqW4X3yRjaVga-17" target="rPol7dPWqW4X3yRjaVga-22">
          <mxGeometry relative="1" as="geometry" />
        </mxCell>
        <mxCell id="rPol7dPWqW4X3yRjaVga-17" value="&lt;div style=&quot;font-size: 22px;&quot;&gt;&lt;span style=&quot;font-size: 22px; background-color: initial;&quot;&gt;Use?&lt;/span&gt;&lt;br style=&quot;font-size: 22px;&quot;&gt;&lt;/div&gt;" style="rhombus;whiteSpace=wrap;html=1;fontSize=22;" vertex="1" parent="WIyWlLk6GJQsqaUBKTNV-1">
          <mxGeometry x="310.5" y="670" width="180" height="80" as="geometry" />
        </mxCell>
        <mxCell id="rPol7dPWqW4X3yRjaVga-20" value="&lt;font style=&quot;font-size: 22px;&quot;&gt;Yes&lt;/font&gt;" style="text;html=1;align=center;verticalAlign=middle;resizable=0;points=[];autosize=1;strokeColor=none;fillColor=none;" vertex="1" parent="WIyWlLk6GJQsqaUBKTNV-1">
          <mxGeometry x="477.5" y="680" width="60" height="40" as="geometry" />
        </mxCell>
        <mxCell id="rPol7dPWqW4X3yRjaVga-26" style="edgeStyle=orthogonalEdgeStyle;rounded=0;orthogonalLoop=1;jettySize=auto;html=1;exitX=0;exitY=0.5;exitDx=0;exitDy=0;entryX=1;entryY=0.5;entryDx=0;entryDy=0;" edge="1" parent="WIyWlLk6GJQsqaUBKTNV-1" source="rPol7dPWqW4X3yRjaVga-22" target="rPol7dPWqW4X3yRjaVga-29">
          <mxGeometry relative="1" as="geometry">
            <mxPoint x="254" y="820" as="targetPoint" />
          </mxGeometry>
        </mxCell>
        <mxCell id="rPol7dPWqW4X3yRjaVga-27" style="edgeStyle=orthogonalEdgeStyle;rounded=0;orthogonalLoop=1;jettySize=auto;html=1;exitX=0.5;exitY=1;exitDx=0;exitDy=0;entryX=0.5;entryY=0;entryDx=0;entryDy=0;" edge="1" parent="WIyWlLk6GJQsqaUBKTNV-1" source="rPol7dPWqW4X3yRjaVga-22">
          <mxGeometry relative="1" as="geometry">
            <mxPoint x="400.5" y="900" as="targetPoint" />
          </mxGeometry>
        </mxCell>
        <mxCell id="rPol7dPWqW4X3yRjaVga-22" value="&lt;div style=&quot;font-size: 22px;&quot;&gt;&lt;span style=&quot;font-size: 22px; background-color: initial;&quot;&gt;EoL&amp;nbsp;&lt;/span&gt;&lt;/div&gt;&lt;div style=&quot;font-size: 22px;&quot;&gt;&lt;span style=&quot;font-size: 22px; background-color: initial;&quot;&gt;Pathway?&lt;/span&gt;&lt;br style=&quot;font-size: 22px;&quot;&gt;&lt;/div&gt;" style="rhombus;whiteSpace=wrap;html=1;fontSize=22;" vertex="1" parent="WIyWlLk6GJQsqaUBKTNV-1">
          <mxGeometry x="290.75" y="780" width="219.5" height="80" as="geometry" />
        </mxCell>
        <mxCell id="rPol7dPWqW4X3yRjaVga-31" style="edgeStyle=orthogonalEdgeStyle;rounded=0;orthogonalLoop=1;jettySize=auto;html=1;entryX=0;entryY=1;entryDx=0;entryDy=0;" edge="1" parent="WIyWlLk6GJQsqaUBKTNV-1" source="rPol7dPWqW4X3yRjaVga-29" target="rPol7dPWqW4X3yRjaVga-22">
          <mxGeometry relative="1" as="geometry">
            <Array as="points">
              <mxPoint x="190" y="880" />
              <mxPoint x="346" y="880" />
            </Array>
          </mxGeometry>
        </mxCell>
        <mxCell id="rPol7dPWqW4X3yRjaVga-29" value="&lt;span style=&quot;color: rgb(0, 0, 0);&quot;&gt;Landfill &amp;amp; Storage&lt;/span&gt;" style="rounded=1;whiteSpace=wrap;html=1;fontSize=22;glass=0;strokeWidth=1;shadow=0;" vertex="1" parent="WIyWlLk6GJQsqaUBKTNV-1">
          <mxGeometry x="130" y="790" width="120" height="60" as="geometry" />
        </mxCell>
        <mxCell id="rPol7dPWqW4X3yRjaVga-32" value="&lt;span style=&quot;color: rgb(255, 255, 255); font-size: 22px;&quot;&gt;Consumer&lt;/span&gt;" style="strokeWidth=2;html=1;shape=mxgraph.flowchart.start_1;whiteSpace=wrap;fillColor=#1ba1e2;fontColor=#ffffff;strokeColor=#006EAF;" vertex="1" parent="WIyWlLk6GJQsqaUBKTNV-1">
          <mxGeometry x="335.75" y="20" width="129.5" height="70" as="geometry" />
        </mxCell>
      </root>
    </mxGraphModel>
  </diagram>
</mxfile>
